# xmcd
#
# Track frame offsets: 
#        150
#        69020
#        84790
#        97470
#        119697
#
# Disc length: 2290 seconds
#
# Revision: 3
# Processed by: cddbd v1.5.2PL0 Copyright (c) Steve Scherf et al.
# Submitted via: ExactAudioCopy v0.95b4
#
DISCID=3b08f005
DTITLE=Balletto Di Bronzo, Il - YS (JP)
DYEAR=1972
DGENRE=Progressive Rock
TTITLE0=Introduzione
TTITLE1=Primo Incontro
TTITLE2=Secondo Incontro
TTITLE3=Terzo Incontro
TTITLE4=Epilogo
EXTD=Informations\n\nJapanese reissue CD\nlabel - Edison\nnumber - ERC
EXTD=32001\nyear - ????\nnote - \n\noriginal release\nlabel - Polydor
EXTD=\nnumber - 2443 003\nyear - 1972\n
EXTT0=
EXTT1=
EXTT2=
EXTT3=
EXTT4=
PLAYORDER=
